<svg width="156" height="49" viewBox="0 0 156 49" fill="none" xmlns="http://www.w3.org/2000/svg">
<rect y="0.551758" width="156" height="48" rx="8" fill="url(#paint0_linear_1_484)"/>
<path d="M33.9834 29.5518C34.0581 29.5518 34.1328 29.4771 34.2074 29.3278C34.2821 29.1784 34.3194 28.9331 34.3194 28.5918V20.9118C34.3194 20.5704 34.2821 20.3304 34.2074 20.1918C34.1328 20.0424 34.0581 19.9624 33.9834 19.9518H36.4474C36.3728 19.9518 36.2981 20.0264 36.2234 20.1758C36.1488 20.3251 36.1114 20.5758 36.1114 20.9278V27.7598C36.1114 27.9944 36.1381 28.1384 36.1914 28.1918C36.2554 28.2344 36.4474 28.2558 36.7674 28.2558H40.8154C41.4341 28.2558 41.9301 28.1864 42.3034 28.0478C42.6874 27.8984 42.9381 27.7544 43.0554 27.6158L42.7354 29.2158V29.5518H33.9834ZM47.9629 29.7118C47.1203 29.7118 46.4269 29.6158 45.8829 29.4238C45.3389 29.2211 44.9123 28.9438 44.6029 28.5918C44.2936 28.2398 44.0749 27.8291 43.9469 27.3598C43.8296 26.8904 43.7709 26.3784 43.7709 25.8238C43.7709 24.6184 44.1123 23.6638 44.7949 22.9598C45.4883 22.2558 46.5123 21.9038 47.8669 21.9038C48.6563 21.9038 49.2909 22.0104 49.7709 22.2238C50.2616 22.4371 50.6296 22.7198 50.8749 23.0718C51.1309 23.4238 51.3016 23.8078 51.3869 24.2238C51.4829 24.6291 51.5309 25.0291 51.5309 25.4238V26.1758C51.5309 26.1438 51.3816 26.1118 51.0829 26.0798C50.7949 26.0371 50.3043 26.0158 49.6109 26.0158H45.4029C45.4029 26.8051 45.6376 27.4291 46.1069 27.8878C46.5763 28.3464 47.2749 28.5758 48.2029 28.5758C49.0029 28.5758 49.6589 28.4798 50.1709 28.2878C50.6936 28.0851 51.0403 27.8878 51.2109 27.6958V28.0158L51.3709 29.0718C51.1363 29.2104 50.7203 29.3544 50.1229 29.5038C49.5363 29.6424 48.8163 29.7118 47.9629 29.7118ZM46.0429 24.9598H49.9309C49.9309 24.6824 49.8723 24.3944 49.7549 24.0958C49.6376 23.7971 49.4296 23.5464 49.1309 23.3438C48.8323 23.1304 48.4109 23.0238 47.8669 23.0238C47.4083 23.0238 47.0083 23.1038 46.6669 23.2638C46.3256 23.4131 46.0589 23.6104 45.8669 23.8558C45.6856 24.1011 45.5949 24.3624 45.5949 24.6398C45.5949 24.7464 45.6269 24.8264 45.6909 24.8798C45.7549 24.9331 45.8723 24.9598 46.0429 24.9598ZM55.9561 29.7118C54.7934 29.7118 53.9774 29.5038 53.5081 29.0878C53.0387 28.6611 52.8041 28.0904 52.8041 27.3758C52.8041 26.8744 52.9267 26.4478 53.1721 26.0958C53.4281 25.7331 53.8067 25.4558 54.3081 25.2638C54.8201 25.0718 55.4654 24.9758 56.2441 24.9758C56.7987 24.9758 57.2787 25.0184 57.6841 25.1038C58.1001 25.1784 58.4361 25.2691 58.6921 25.3758C58.9587 25.4824 59.1454 25.5731 59.2521 25.6478C59.2521 25.0184 59.1721 24.5118 59.0121 24.1278C58.8627 23.7438 58.6174 23.4664 58.2761 23.2958C57.9347 23.1144 57.4707 23.0238 56.8841 23.0238C56.2547 23.0238 55.6894 23.0984 55.1881 23.2478C54.6974 23.3864 54.3027 23.5411 54.0041 23.7118C53.7054 23.8718 53.5187 23.9891 53.4441 24.0638V23.7438L53.2841 22.5438C53.3801 22.5011 53.5881 22.4318 53.9081 22.3358C54.2281 22.2291 54.6494 22.1331 55.1721 22.0478C55.6947 21.9518 56.3081 21.9038 57.0121 21.9038C57.9081 21.9038 58.6387 22.0318 59.2041 22.2878C59.7801 22.5331 60.2014 22.9171 60.4681 23.4398C60.7454 23.9518 60.8841 24.6024 60.8841 25.3918V28.5918C60.8841 28.8904 60.9161 29.1091 60.9801 29.2478C61.0547 29.3758 61.1294 29.4771 61.2041 29.5518H59.2521V29.0718L59.2841 28.7678L59.2521 28.7518C59.0814 28.9118 58.8787 29.0504 58.6441 29.1678C58.4094 29.2851 58.1534 29.3864 57.8761 29.4718C57.5987 29.5464 57.2947 29.6051 56.9641 29.6478C56.6441 29.6904 56.3081 29.7118 55.9561 29.7118ZM56.4841 28.5758C57.0601 28.5758 57.5561 28.5171 57.9721 28.3998C58.3881 28.2824 58.7027 28.1278 58.9161 27.9358C59.1401 27.7331 59.2521 27.5038 59.2521 27.2478C59.2521 26.9278 59.0387 26.6558 58.6121 26.4318C58.1961 26.2078 57.5454 26.0958 56.6601 26.0958C55.8387 26.0958 55.2574 26.2024 54.9161 26.4158C54.5854 26.6291 54.4201 26.9491 54.4201 27.3758C54.4201 27.7918 54.5801 28.0958 54.9001 28.2878C55.2307 28.4798 55.7587 28.5758 56.4841 28.5758ZM62.5876 29.5518C62.6622 29.5518 62.7316 29.4771 62.7956 29.3278C62.8702 29.1784 62.9076 28.9331 62.9076 28.5918V23.1838C62.9076 22.8424 62.8702 22.6024 62.7956 22.4638C62.7316 22.3144 62.6622 22.2344 62.5876 22.2238C63.0569 22.2238 63.4622 22.1918 63.8036 22.1278C64.1556 22.0531 64.4009 21.9784 64.5396 21.9038V22.7038L64.5076 22.9758L64.5396 23.0078C64.6996 22.7944 64.8916 22.6078 65.1156 22.4478C65.3502 22.2771 65.6169 22.1438 65.9156 22.0478C66.2142 21.9518 66.5556 21.9038 66.9396 21.9038C67.4409 21.9038 67.8729 21.9784 68.2356 22.1278C68.6089 22.2664 68.8756 22.4104 69.0356 22.5598L68.7156 23.9038V24.3838C68.5769 24.2131 68.3742 24.0371 68.1076 23.8558C67.8516 23.6638 67.5582 23.5038 67.2276 23.3758C66.8969 23.2478 66.5449 23.1838 66.1716 23.1838C65.7449 23.1838 65.3662 23.3544 65.0356 23.6958C64.7049 24.0371 64.5396 24.6024 64.5396 25.3918V28.5918C64.5396 28.9331 64.5716 29.1784 64.6356 29.3278C64.7102 29.4771 64.7849 29.5518 64.8596 29.5518H62.5876ZM70.0876 29.5518C70.1622 29.5518 70.2316 29.4771 70.2956 29.3278C70.3702 29.1784 70.4076 28.9331 70.4076 28.5918V23.1838C70.4076 22.8424 70.3702 22.6024 70.2956 22.4638C70.2316 22.3144 70.1622 22.2344 70.0876 22.2238C70.5569 22.2238 70.9622 22.1918 71.3036 22.1278C71.6556 22.0531 71.9009 21.9784 72.0396 21.9038V22.8798L72.0076 23.0878L72.0396 23.1198C72.1996 22.9171 72.4022 22.7251 72.6476 22.5438C72.9036 22.3624 73.2182 22.2131 73.5916 22.0958C73.9649 21.9678 74.4022 21.9038 74.9036 21.9038C75.8956 21.9038 76.6529 22.1864 77.1756 22.7518C77.7089 23.3171 77.9756 24.2024 77.9756 25.4078V28.5918C77.9756 28.9331 78.0076 29.1784 78.0716 29.3278C78.1462 29.4771 78.2209 29.5518 78.2956 29.5518H76.0236C76.0982 29.5518 76.1676 29.4771 76.2316 29.3278C76.3062 29.1784 76.3436 28.9331 76.3436 28.5918V25.4558C76.3436 24.8264 76.2636 24.3358 76.1036 23.9838C75.9436 23.6318 75.7196 23.3864 75.4316 23.2478C75.1542 23.0984 74.8289 23.0238 74.4556 23.0238C74.0609 23.0238 73.6769 23.1091 73.3036 23.2798C72.9302 23.4504 72.6262 23.7224 72.3916 24.0958C72.1569 24.4691 72.0396 24.9704 72.0396 25.5998V28.5918C72.0396 28.9331 72.0716 29.1784 72.1356 29.3278C72.2102 29.4771 72.2849 29.5518 72.3596 29.5518H70.0876ZM83.5094 29.5518C83.5841 29.5518 83.6534 29.4771 83.7174 29.3278C83.7921 29.1784 83.8294 28.9331 83.8294 28.5918V23.1838C83.8294 22.8424 83.7921 22.6024 83.7174 22.4638C83.6534 22.3144 83.5841 22.2344 83.5094 22.2238C83.9788 22.2238 84.3841 22.1918 84.7254 22.1278C85.0774 22.0531 85.3228 21.9784 85.4614 21.9038V22.8798L85.4294 23.0878L85.4614 23.1198C85.6214 22.9171 85.7974 22.7251 85.9894 22.5438C86.1921 22.3624 86.4534 22.2131 86.7734 22.0958C87.0934 21.9678 87.5041 21.9038 88.0054 21.9038C88.9974 21.9038 89.7548 22.1864 90.2774 22.7518C90.8108 23.3171 91.0774 24.2024 91.0774 25.4078V28.5918C91.0774 28.9331 91.1094 29.1784 91.1734 29.3278C91.2481 29.4771 91.3228 29.5518 91.3974 29.5518H89.1254C89.2001 29.5518 89.2694 29.4771 89.3334 29.3278C89.4081 29.1784 89.4454 28.9331 89.4454 28.5918V25.4558C89.4454 24.8264 89.3654 24.3358 89.2054 23.9838C89.0454 23.6318 88.8214 23.3864 88.5334 23.2478C88.2561 23.0984 87.9308 23.0238 87.5574 23.0238C87.1628 23.0238 86.8054 23.1091 86.4854 23.2798C86.1654 23.4504 85.9148 23.7224 85.7334 24.0958C85.5521 24.4691 85.4614 24.9704 85.4614 25.5998V28.5918C85.4614 28.9331 85.4934 29.1784 85.5574 29.3278C85.6321 29.4771 85.7068 29.5518 85.7814 29.5518H83.5094ZM94.7254 29.5518C94.8001 29.5518 94.8694 29.4771 94.9334 29.3278C95.0081 29.1784 95.0454 28.9331 95.0454 28.5918V25.4558C95.0454 24.8264 94.9654 24.3358 94.8054 23.9838C94.6454 23.6318 94.4214 23.3864 94.1334 23.2478C93.8561 23.0984 93.5308 23.0238 93.1574 23.0238C92.5388 23.0238 92.0374 23.2211 91.6534 23.6158C91.2694 23.9998 91.0774 24.6558 91.0774 25.5838L90.4214 23.9838C90.4534 23.8664 90.5281 23.6958 90.6454 23.4718C90.7734 23.2478 90.9548 23.0184 91.1894 22.7838C91.4348 22.5384 91.7494 22.3304 92.1334 22.1598C92.5281 21.9891 93.0188 21.9038 93.6054 21.9038C94.2668 21.9038 94.8268 22.0318 95.2854 22.2878C95.7441 22.5331 96.0908 22.9118 96.3254 23.4238C96.5601 23.9358 96.6774 24.5971 96.6774 25.4078V28.5918C96.6774 28.9331 96.7094 29.1784 96.7734 29.3278C96.8481 29.4771 96.9228 29.5518 96.9974 29.5518H94.7254ZM102.321 29.7118C101.254 29.7118 100.417 29.5411 99.8088 29.1998C99.2115 28.8584 98.7901 28.3944 98.5448 27.8078C98.3101 27.2211 98.1928 26.5598 98.1928 25.8238C98.1928 25.0771 98.3155 24.4104 98.5608 23.8238C98.8168 23.2371 99.2435 22.7731 99.8408 22.4318C100.438 22.0798 101.265 21.9038 102.321 21.9038C103.377 21.9038 104.203 22.0798 104.801 22.4318C105.398 22.7731 105.819 23.2371 106.065 23.8238C106.321 24.4104 106.449 25.0771 106.449 25.8238C106.449 26.5598 106.326 27.2211 106.081 27.8078C105.846 28.3944 105.43 28.8584 104.833 29.1998C104.235 29.5411 103.398 29.7118 102.321 29.7118ZM102.321 28.5758C102.982 28.5758 103.494 28.4691 103.857 28.2558C104.219 28.0424 104.47 27.7331 104.609 27.3278C104.747 26.9118 104.817 26.4104 104.817 25.8238C104.817 25.2371 104.742 24.7358 104.593 24.3198C104.454 23.9038 104.203 23.5838 103.841 23.3598C103.489 23.1358 102.982 23.0238 102.321 23.0238C101.67 23.0238 101.163 23.1411 100.801 23.3758C100.438 23.5998 100.182 23.9251 100.033 24.3518C99.8941 24.7678 99.8248 25.2638 99.8248 25.8398C99.8248 26.4051 99.8941 26.8958 100.033 27.3118C100.171 27.7171 100.422 28.0318 100.785 28.2558C101.147 28.4691 101.659 28.5758 102.321 28.5758ZM107.744 29.5518C107.818 29.5518 107.888 29.4771 107.952 29.3278C108.026 29.1784 108.064 28.9331 108.064 28.5918V23.1838C108.064 22.8424 108.026 22.6024 107.952 22.4638C107.888 22.3144 107.818 22.2344 107.744 22.2238C108.213 22.2238 108.618 22.1918 108.96 22.1278C109.312 22.0531 109.557 21.9784 109.696 21.9038V22.7038L109.664 22.9758L109.696 23.0078C109.856 22.7944 110.048 22.6078 110.272 22.4478C110.506 22.2771 110.773 22.1438 111.072 22.0478C111.37 21.9518 111.712 21.9038 112.096 21.9038C112.597 21.9038 113.029 21.9784 113.392 22.1278C113.765 22.2664 114.032 22.4104 114.192 22.5598L113.872 23.9038V24.3838C113.733 24.2131 113.53 24.0371 113.264 23.8558C113.008 23.6638 112.714 23.5038 112.384 23.3758C112.053 23.2478 111.701 23.1838 111.328 23.1838C110.901 23.1838 110.522 23.3544 110.192 23.6958C109.861 24.0371 109.696 24.6024 109.696 25.3918V28.5918C109.696 28.9331 109.728 29.1784 109.792 29.3278C109.866 29.4771 109.941 29.5518 110.016 29.5518H107.744ZM118.775 29.7118C117.933 29.7118 117.239 29.6158 116.695 29.4238C116.151 29.2211 115.725 28.9438 115.415 28.5918C115.106 28.2398 114.887 27.8291 114.759 27.3598C114.642 26.8904 114.583 26.3784 114.583 25.8238C114.583 24.6184 114.925 23.6638 115.607 22.9598C116.301 22.2558 117.325 21.9038 118.679 21.9038C119.469 21.9038 120.103 22.0104 120.583 22.2238C121.074 22.4371 121.442 22.7198 121.687 23.0718C121.943 23.4238 122.114 23.8078 122.199 24.2238C122.295 24.6291 122.343 25.0291 122.343 25.4238V26.1758C122.343 26.1438 122.194 26.1118 121.895 26.0798C121.607 26.0371 121.117 26.0158 120.423 26.0158H116.215C116.215 26.8051 116.45 27.4291 116.919 27.8878C117.389 28.3464 118.087 28.5758 119.015 28.5758C119.815 28.5758 120.471 28.4798 120.983 28.2878C121.506 28.0851 121.853 27.8878 122.023 27.6958V28.0158L122.183 29.0718C121.949 29.2104 121.533 29.3544 120.935 29.5038C120.349 29.6424 119.629 29.7118 118.775 29.7118ZM116.855 24.9598H120.743C120.743 24.6824 120.685 24.3944 120.567 24.0958C120.45 23.7971 120.242 23.5464 119.943 23.3438C119.645 23.1304 119.223 23.0238 118.679 23.0238C118.221 23.0238 117.821 23.1038 117.479 23.2638C117.138 23.4131 116.871 23.6104 116.679 23.8558C116.498 24.1011 116.407 24.3624 116.407 24.6398C116.407 24.7464 116.439 24.8264 116.503 24.8798C116.567 24.9331 116.685 24.9598 116.855 24.9598Z" fill="url(#paint1_linear_1_484)"/>
<defs>
<linearGradient id="paint0_linear_1_484" x1="12.237" y1="7.81135" x2="46.025" y2="83.013" gradientUnits="userSpaceOnUse">
<stop stop-color="white"/>
<stop offset="1" stop-color="white"/>
</linearGradient>
<linearGradient id="paint1_linear_1_484" x1="43.3065" y1="14.5518" x2="119.371" y2="14.5518" gradientUnits="userSpaceOnUse">
<stop stop-color="#A02279"/>
<stop stop-color="#A02279"/>
</linearGradient>
</defs>
</svg>
